<?xml version="1.0" standalone="no"?>
<!DOCTYPE svg PUBLIC "-//W3C//DTD SVG 20010904//EN"
 "http://www.w3.org/TR/2001/REC-SVG-20010904/DTD/svg10.dtd">
<svg version="1.0" xmlns="http://www.w3.org/2000/svg"
 width="490.000000pt" height="490.000000pt" viewBox="0 0 490.000000 490.000000"
 preserveAspectRatio="xMidYMid meet">
<metadata>
Created by potrace 1.11, written by Peter Selinger 2001-2013
</metadata>
<g transform="translate(0.000000,490.000000) scale(0.100000,-0.100000)"
fill="#000000" stroke="none">
<path d="M413 4883 c-9 -15 -13 -16 -24 -5 -16 15 -195 17 -204 2 -3 -5 -15
-10 -26 -10 -10 0 -19 5 -19 10 0 11 -98 14 -124 4 -15 -6 -16 -230 -16 -2445
l0 -2439 2450 0 2450 0 0 2451 0 2451 -227 -5 c-126 -4 -722 -6 -1326 -7 -671
0 -1096 -4 -1095 -9 2 -5 -6 -17 -17 -26 -11 -9 -14 -13 -6 -9 9 5 12 3 7 -4
-12 -20 -23 -13 -29 18 -5 22 -12 30 -28 30 -12 0 -20 -3 -17 -6 4 -3 2 -19
-2 -36 -8 -27 -7 -28 7 -16 15 12 15 11 5 -7 -8 -16 -7 -24 6 -38 15 -17 15
-17 -3 -11 -14 6 -16 4 -10 -6 5 -9 4 -11 -4 -6 -6 4 -10 15 -9 24 3 19 -26
24 -56 9 -13 -6 -16 -6 -12 2 12 19 -4 33 -22 19 -12 -10 -14 -10 -8 0 4 7 2
12 -4 12 -7 0 -10 7 -7 15 9 22 -48 45 -113 45 -31 0 -60 -3 -64 -7 -10 -11
-36 -12 -36 -2 0 13 -273 12 -287 -2 -8 -8 -13 -8 -17 0 -9 14 -143 15 -151 1
-4 -7 -13 -6 -27 1 -14 7 -49 10 -95 6 -42 -3 -73 -2 -73 4 0 5 -9 9 -20 9
-11 0 -20 -4 -20 -8 0 -5 -52 -6 -116 -4 -92 4 -118 2 -125 -9 -7 -11 -12 -12
-29 -1 -24 15 -196 17 -205 2 -3 -5 -15 -10 -26 -10 -10 0 -19 5 -19 10 0 13
-113 13 -127 -1 -7 -7 -15 -6 -26 5 -20 21 -39 20 -54 -1z m1802 -71 c-3 -3
-11 0 -18 7 -9 10 -8 11 6 5 10 -3 15 -9 12 -12z m-82 -29 c-7 -2 -9 -11 -6
-19 3 -8 0 -14 -7 -14 -6 0 -8 5 -5 10 3 6 1 10 -4 10 -22 0 -10 16 12 17 12
0 17 -1 10 -4z m487 -1991 c0 -4 -6 -14 -12 -21 -11 -11 -7 -12 22 -7 152 31
368 34 385 6 3 -5 19 -3 35 3 23 9 33 8 42 -1 9 -9 9 -12 -3 -12 -12 0 -12 -2
1 -11 11 -7 6 -8 -20 -5 -58 9 -103 -13 -117 -57 -7 -21 -14 -51 -15 -68 -3
-34 -32 -58 -45 -36 -18 30 -93 79 -125 82 -18 2 -46 8 -61 14 -34 13 -37 13
-37 2 0 -5 15 -16 33 -25 42 -20 14 -20 -49 0 -27 9 -56 26 -65 37 -11 14 -22
18 -35 13 -17 -7 -17 -5 2 16 11 13 26 35 34 51 13 25 30 37 30 19z m764 -17
c-4 -8 -8 -15 -10 -15 -2 0 -4 7 -4 15 0 8 4 15 10 15 5 0 7 -7 4 -15z m-27
-10 c0 -8 -13 -20 -29 -27 -15 -7 -28 -16 -28 -20 0 -5 -9 -8 -19 -8 -11 0
-21 -3 -23 -8 -1 -4 -26 4 -55 18 l-51 25 46 2 c26 1 65 9 87 17 52 19 72 19
72 1z m-1387 -76 c97 -14 226 -49 320 -87 70 -29 76 -30 105 -15 16 8 44 27
60 42 17 14 24 19 18 11 -21 -23 -15 -29 24 -25 24 2 46 -3 63 -14 14 -10 47
-28 73 -39 44 -20 47 -23 35 -42 -10 -16 -10 -24 0 -40 11 -18 10 -20 -9 -20
-15 0 -19 -4 -15 -16 6 -15 4 -15 -10 -3 -10 8 -19 13 -21 12 -9 -7 -23 -2
-18 7 3 6 -3 10 -13 10 -11 0 -35 2 -53 5 -26 4 -30 3 -14 -4 17 -8 16 -10
-12 -10 -17 -1 -34 5 -37 12 -3 6 -4 0 -1 -15 3 -16 1 -28 -5 -28 -5 0 -10 5
-10 10 0 6 -7 10 -16 10 -9 0 -23 8 -30 18 -11 14 -13 14 -14 2 0 -13 -1 -13
-10 0 -8 12 -10 12 -10 -5 0 -17 -2 -17 -10 -5 -6 9 -13 11 -17 5 -11 -14 -53
-19 -53 -6 0 16 -19 13 -36 -4 -9 -8 -21 -15 -27 -15 -7 0 -6 4 3 10 13 8 13
11 1 22 -10 10 -12 10 -7 1 5 -8 1 -13 -9 -13 -9 0 -14 4 -11 9 3 5 -3 11 -14
14 -11 3 -23 1 -26 -4 -3 -5 -15 -9 -27 -8 -21 0 -21 1 -2 9 18 8 17 9 -7 9
-15 1 -31 -6 -36 -15 -5 -9 -12 -15 -15 -15 -24 3 -37 0 -32 -9 7 -12 -23 -2
-44 14 -11 8 -13 8 -7 -1 5 -9 -1 -13 -21 -12 -25 0 -26 1 -8 10 15 7 9 8 -20
4 -29 -4 -36 -3 -25 4 12 9 11 11 -8 11 -14 0 -21 -4 -16 -11 4 -8 0 -8 -15 0
-12 7 -26 9 -31 6 -6 -4 -9 -1 -8 7 2 7 -3 12 -10 10 -8 -1 -11 2 -8 6 8 13
-59 22 -111 15 -32 -4 -47 -2 -53 7 -5 8 -18 15 -30 17 -12 2 -19 -1 -15 -7 3
-5 -3 -10 -14 -10 -12 0 -21 -4 -21 -8 0 -4 -17 -6 -37 -4 -25 3 -40 0 -48
-11 -6 -8 -24 -17 -40 -19 -30 -3 -48 -28 -20 -28 9 0 13 5 10 10 -3 6 0 10 8
10 8 0 17 -7 21 -15 3 -10 -1 -15 -12 -15 -15 0 -15 -2 -2 -10 8 -5 12 -10 8
-10 -3 0 -14 -3 -22 -6 -12 -5 -15 -2 -10 12 6 17 5 17 -9 -1 -14 -16 -18 -17
-26 -6 -7 11 -15 11 -37 2 l-29 -11 28 4 c18 2 26 -1 22 -8 -3 -6 -8 -19 -11
-28 -4 -10 -10 -18 -15 -18 -5 0 -9 -7 -9 -15 0 -8 -6 -15 -14 -15 -13 0 -26
-20 -25 -37 1 -10 -32 -22 -61 -22 -23 0 -23 1 -5 9 11 5 16 9 11 9 -5 1 -3 8
4 16 7 8 10 15 6 15 -17 0 35 37 64 46 l35 11 -45 10 c-25 6 -38 11 -29 12 21
1 33 41 13 41 -8 0 -13 -5 -12 -12 2 -6 -6 -14 -17 -16 -15 -3 -17 -2 -8 9 9
12 -2 14 -68 17 -67 2 -78 0 -73 -13 4 -10 0 -15 -12 -15 -14 0 -16 2 -6 9 8
4 13 12 12 17 -1 4 7 11 17 15 10 4 14 8 9 8 -5 1 1 9 12 20 12 10 19 21 16
24 -4 3 5 9 20 13 14 3 23 10 20 15 -3 5 2 9 11 9 9 0 13 5 10 10 -3 6 -1 10
5 10 6 0 8 4 5 10 -7 11 81 69 140 92 34 13 117 28 240 42 49 5 265 -4 345
-15z m580 -13 c-8 -8 -26 -17 -40 -21 l-25 -6 25 20 c30 24 64 30 40 7z m920
-41 c0 -12 -19 -12 -23 0 -4 9 -1 12 9 8 7 -3 14 -7 14 -8z m845 -56 c-4 -5
-21 -8 -38 -8 -30 2 -31 2 -4 6 15 2 27 9 27 14 0 6 5 7 10 4 6 -4 8 -11 5
-16z m-290 -19 c-2 -4 -35 -8 -72 -9 -37 0 -88 -3 -113 -6 -25 -3 -39 -2 -32
1 6 3 10 9 8 12 -2 4 10 7 27 6 18 -1 61 1 97 5 67 7 93 4 85 -9z m-245 -25
c0 -5 -75 -27 -100 -29 -9 -1 -20 -5 -26 -8 -5 -4 -16 -2 -24 4 -13 8 -12 9 2
5 9 -3 19 -3 23 1 4 4 30 12 58 18 69 15 67 15 67 9z m-2133 -31 c-3 -3 -12
-4 -19 -1 -8 3 -5 6 6 6 11 1 17 -2 13 -5z m-114 -11 c-7 -2 -19 -2 -25 0 -7
3 -2 5 12 5 14 0 19 -2 13 -5z m174 1 c-3 -3 -12 -4 -19 -1 -8 3 -5 6 6 6 11
1 17 -2 13 -5z m1753 -18 c0 -3 -4 -8 -10 -11 -5 -3 -10 -1 -10 4 0 6 5 11 10
11 6 0 10 -2 10 -4z m9 -48 c-9 -16 -14 -19 -17 -9 -2 7 2 17 9 22 20 13 21
11 8 -13z m-799 -24 c0 -2 -7 -4 -15 -4 -8 0 -15 4 -15 10 0 5 7 7 15 4 8 -4
15 -8 15 -10z m37 0 c-3 -3 -12 -4 -19 -1 -8 3 -5 6 6 6 11 1 17 -2 13 -5z
m-1404 -31 c-7 -2 -19 -2 -25 0 -7 3 -2 5 12 5 14 0 19 -2 13 -5z m1390 -20
c-5 -12 -7 -12 -14 -1 -13 20 -11 28 5 22 8 -3 12 -12 9 -21z m-1528 -192
c-11 -5 -20 -13 -20 -20 0 -6 -3 -11 -7 -11 -5 0 -7 3 -7 8 4 23 13 32 33 31
20 0 20 -1 1 -8z m30 -181 c-3 -5 -12 -10 -18 -10 -7 0 -6 4 3 10 19 12 23 12
15 0z m1815 -174 c-6 -6 -15 -4 -25 4 -23 19 -18 29 9 17 15 -7 21 -16 16 -21z
m-33 -262 c-3 -3 -12 -4 -19 -1 -8 3 -5 6 6 6 11 1 17 -2 13 -5z m216 -31 c-7
-2 -19 -2 -25 0 -7 3 -2 5 12 5 14 0 19 -2 13 -5z m714 -109 c-3 -3 -12 -4
-19 -1 -8 3 -5 6 6 6 11 1 17 -2 13 -5z m433 -114 c8 -5 11 -10 5 -10 -5 0
-17 5 -25 10 -8 5 -10 10 -5 10 6 0 17 -5 25 -10z m67 -16 c-3 -3 -12 -4 -19
-1 -8 3 -5 6 6 6 11 1 17 -2 13 -5z m38 -14 c3 -6 -1 -7 -9 -4 -18 7 -21 14
-7 14 6 0 13 -4 16 -10z m72 -16 c-3 -3 -12 -4 -19 -1 -8 3 -5 6 6 6 11 1 17
-2 13 -5z"/>
<path d="M1568 2533 c6 -2 18 -2 25 0 6 3 1 5 -13 5 -14 0 -19 -2 -12 -5z"/>
<path d="M1458 2493 c7 -3 16 -2 19 1 4 3 -2 6 -13 5 -11 0 -14 -3 -6 -6z"/>
<path d="M1210 2449 c0 -5 9 -9 20 -9 11 0 20 2 20 4 0 2 -9 6 -20 9 -11 3
-20 1 -20 -4z"/>
</g>
</svg>
